<svg xmlns="http://www.w3.org/2000/svg" xmlns:xlink="http://www.w3.org/1999/xlink" width="1200" zoomAndPan="magnify" viewBox="0 0 900 899.99999" height="1200" preserveAspectRatio="xMidYMid meet" version="1.0"><defs><g/><clipPath id="7df2c85e34"><path d="M 470.636719 284.023438 L 517.136719 284.023438 L 517.136719 341 L 470.636719 341 Z M 470.636719 284.023438 " clip-rule="nonzero"/></clipPath><clipPath id="e2428ccae9"><path d="M 480.542969 296.117188 L 507.542969 296.117188 L 507.542969 329 L 480.542969 329 Z M 480.542969 296.117188 " clip-rule="nonzero"/></clipPath></defs><rect x="-90" width="1080" fill="#ffffff" y="-89.999999" height="1079.999988" fill-opacity="1"/><rect x="-90" width="1080" fill="#ffffff" y="-89.999999" height="1079.999988" fill-opacity="1"/><g clip-path="url(#7df2c85e34)"><path fill="#0564d2" d="M 516.609375 314.082031 L 495.878906 339.886719 C 494.863281 341.148438 492.964844 341.148438 491.949219 339.886719 L 471.21875 314.082031 C 470.449219 313.125 470.449219 311.753906 471.21875 310.800781 L 491.949219 284.992188 C 492.964844 283.730469 494.863281 283.730469 495.878906 284.992188 L 516.609375 310.800781 C 517.375 311.75 517.375 313.125 516.609375 314.082031 Z M 516.609375 314.082031 " fill-opacity="1" fill-rule="nonzero"/></g><g fill="#0564d2" fill-opacity="1"><g transform="translate(282.877197, 468.632676)"><g><path d="M 95.289062 -79.328125 C 79.234375 -71.867188 67.164062 -65.945312 59.070312 -61.566406 C 55.140625 -59.4375 52.199219 -57.703125 50.246094 -56.359375 C 49.421875 -55.792969 48.835938 -55.339844 48.480469 -55 L 48.484375 -55.03125 C 48.777344 -55.449219 48.96875 -55.953125 49.066406 -56.550781 C 49.226562 -57.441406 49.113281 -58.210938 48.71875 -58.859375 C 48.777344 -58.765625 48.960938 -58.5625 49.265625 -58.257812 C 50.257812 -57.265625 51.886719 -55.957031 54.144531 -54.335938 C 58.953125 -50.886719 64.398438 -47.484375 70.488281 -44.125 L 68.042969 -39.691406 L 62.984375 -39.539062 L 62.339844 -60.957031 L 97.996094 -60.957031 L 98.054688 -55.953125 C 98.273438 -37.878906 98.175781 -24.015625 97.765625 -14.367188 C 97.558594 -9.433594 97.265625 -5.554688 96.886719 -2.730469 C 96.679688 -1.175781 96.4375 0.109375 96.164062 1.132812 C 95.734375 2.726562 95.117188 3.96875 94.316406 4.855469 C 92.613281 6.683594 90.222656 7.28125 87.152344 6.652344 C 85.582031 6.328125 83.601562 5.644531 81.214844 4.59375 C 76.910156 2.703125 70.929688 -0.507812 63.277344 -5.039062 C 48.171875 -13.984375 33.367188 -23.796875 18.867188 -34.480469 C 11.539062 -39.882812 6.011719 -44.289062 2.289062 -47.707031 C 0.289062 -49.542969 -1.246094 -51.144531 -2.316406 -52.507812 C -3.929688 -54.574219 -4.738281 -56.511719 -4.738281 -58.324219 C -4.738281 -59.820312 -4.199219 -61.339844 -3.113281 -62.886719 C -2.457031 -63.824219 -1.542969 -64.863281 -0.367188 -66.003906 C 1.703125 -68.015625 4.460938 -70.257812 7.90625 -72.726562 C 11.183594 -75.074219 14.921875 -77.667969 19.117188 -80.5 C 23.339844 -83.351562 27.777344 -86.199219 32.433594 -89.046875 L 46.296875 -97.480469 C 50.96875 -100.304688 55.394531 -102.941406 59.574219 -105.382812 L 70.601562 -111.789062 C 73.824219 -113.644531 76.414062 -115.117188 78.382812 -116.210938 L 86.703125 -120.832031 L 99.332031 -81.207031 Z M 91.019531 -88.511719 L 93.15625 -83.917969 L 88.332031 -82.382812 L 78.933594 -111.867188 L 83.757812 -113.40625 L 86.214844 -108.980469 L 83.300781 -107.359375 C 81.378906 -106.292969 78.84375 -104.851562 75.6875 -103.03125 L 64.683594 -96.640625 C 60.546875 -94.222656 56.171875 -91.621094 51.558594 -88.828125 L 37.714844 -80.410156 C 33.191406 -77.640625 28.878906 -74.875 24.785156 -72.109375 C 20.667969 -69.328125 17.003906 -66.789062 13.804688 -64.496094 C 10.769531 -62.320312 8.394531 -60.402344 6.6875 -58.742188 C 5.972656 -58.046875 5.46875 -57.492188 5.179688 -57.078125 L 5.15625 -57.074219 C 5.308594 -57.433594 5.386719 -57.847656 5.386719 -58.324219 C 5.386719 -58.796875 5.320312 -59.164062 5.1875 -59.425781 C 5.261719 -59.28125 5.417969 -59.054688 5.660156 -58.75 C 6.382812 -57.820312 7.542969 -56.628906 9.132812 -55.167969 C 12.589844 -51.996094 17.835938 -47.820312 24.875 -42.632812 C 39.101562 -32.148438 53.621094 -22.523438 68.433594 -13.753906 C 75.738281 -9.429688 81.355469 -6.402344 85.289062 -4.675781 C 87.019531 -3.914062 88.316406 -3.445312 89.183594 -3.269531 C 89.296875 -3.246094 89.378906 -3.230469 89.433594 -3.226562 C 89.378906 -3.230469 89.296875 -3.230469 89.191406 -3.21875 C 88.320312 -3.132812 87.523438 -2.707031 86.808594 -1.9375 C 86.5625 -1.667969 86.390625 -1.414062 86.289062 -1.179688 C 86.308594 -1.226562 86.339844 -1.332031 86.382812 -1.496094 C 86.546875 -2.09375 86.699219 -2.953125 86.851562 -4.074219 C 87.1875 -6.59375 87.453125 -10.167969 87.652344 -14.796875 C 88.050781 -24.261719 88.144531 -37.941406 87.929688 -55.832031 L 92.992188 -55.894531 L 92.992188 -50.828125 L 67.558594 -50.828125 L 67.558594 -55.894531 L 72.617188 -56.042969 L 73.371094 -30.96875 L 65.597656 -35.257812 C 59.160156 -38.8125 53.375 -42.429688 48.242188 -46.109375 C 45.535156 -48.050781 43.488281 -49.714844 42.105469 -51.097656 C 39.667969 -53.535156 38.65625 -55.886719 39.066406 -58.152344 C 39.300781 -59.605469 40.101562 -60.988281 41.46875 -62.304688 C 42.21875 -63.023438 43.230469 -63.824219 44.507812 -64.699219 C 46.753906 -66.246094 50.003906 -68.171875 54.253906 -70.46875 C 62.523438 -74.949219 74.78125 -80.960938 91.019531 -88.511719 Z M 91.019531 -88.511719 "/></g></g></g><g fill="#0564d2" fill-opacity="1"><g transform="translate(374.298606, 468.632676)"><g><path d="M 72.144531 -45.78125 C 71.976562 -46.445312 71.710938 -47.003906 71.347656 -47.457031 C 71.359375 -47.445312 71.410156 -47.390625 71.496094 -47.296875 C 71.8125 -46.972656 72.296875 -46.5 72.960938 -45.878906 C 74.378906 -44.554688 76.5 -42.652344 79.320312 -40.175781 C 85.023438 -35.171875 90.726562 -30.25 96.429688 -25.40625 L 109.582031 -14.242188 L 105 -10.382812 C 94.851562 -1.835938 88.046875 4.167969 84.582031 7.628906 L 81.191406 11.019531 L 77.625 7.820312 C 56.59375 -11.042969 41.402344 -25.207031 32.042969 -34.675781 L 35.640625 -38.234375 L 40.699219 -38.429688 L 42.207031 0.515625 L 3.226562 -0.585938 L 3.199219 -5.476562 C 2.984375 -42.140625 3.078125 -69.671875 3.484375 -88.082031 C 3.6875 -97.355469 3.972656 -104.347656 4.339844 -109.058594 C 4.53125 -111.546875 4.753906 -113.464844 5.003906 -114.808594 C 5.171875 -115.714844 5.378906 -116.46875 5.617188 -117.074219 C 5.859375 -117.683594 6.164062 -118.21875 6.53125 -118.6875 C 7.476562 -119.878906 8.683594 -120.554688 10.164062 -120.707031 L 10.257812 -120.71875 L 10.355469 -120.726562 C 11.757812 -120.820312 14.800781 -120.1875 19.488281 -118.835938 C 23.664062 -117.632812 29.492188 -115.804688 36.972656 -113.355469 C 51.929688 -108.460938 66.699219 -103.078125 81.277344 -97.203125 C 88.695312 -94.214844 94.296875 -91.6875 98.085938 -89.621094 C 100.183594 -88.480469 101.808594 -87.429688 102.964844 -86.472656 C 105.09375 -84.710938 106.15625 -82.78125 106.15625 -80.679688 C 106.15625 -79.214844 105.453125 -77.5625 104.054688 -75.730469 C 103.246094 -74.675781 102.082031 -73.320312 100.554688 -71.671875 C 97.65625 -68.539062 93.339844 -64.199219 87.601562 -58.652344 C 81.980469 -53.21875 77.792969 -49.054688 75.035156 -46.148438 C 73.722656 -44.765625 72.761719 -43.699219 72.15625 -42.953125 C 71.945312 -42.695312 71.8125 -42.523438 71.757812 -42.4375 C 72.226562 -43.1875 72.390625 -44.101562 72.257812 -45.179688 L 67.234375 -44.550781 Z M 62.320312 -43.324219 L 62.246094 -43.621094 L 62.210938 -43.925781 C 62.046875 -45.21875 62.363281 -46.507812 63.164062 -47.789062 C 63.441406 -48.234375 63.816406 -48.75 64.296875 -49.339844 C 65.066406 -50.289062 66.199219 -51.550781 67.691406 -53.121094 C 70.550781 -56.128906 74.839844 -60.402344 80.5625 -65.933594 C 86.164062 -71.347656 90.351562 -75.554688 93.125 -78.550781 C 94.433594 -79.964844 95.394531 -81.074219 96.003906 -81.875 C 96.21875 -82.152344 96.359375 -82.351562 96.421875 -82.460938 C 96.160156 -82 96.03125 -81.40625 96.03125 -80.679688 C 96.03125 -79.851562 96.234375 -79.15625 96.636719 -78.589844 C 96.675781 -78.535156 96.703125 -78.5 96.71875 -78.484375 C 96.671875 -78.535156 96.597656 -78.597656 96.507812 -78.675781 C 95.851562 -79.214844 94.765625 -79.898438 93.242188 -80.730469 C 89.796875 -82.605469 84.546875 -84.96875 77.492188 -87.808594 C 63.125 -93.601562 48.566406 -98.90625 33.824219 -103.734375 C 26.457031 -106.144531 20.742188 -107.9375 16.679688 -109.109375 C 14.710938 -109.675781 13.15625 -110.09375 12.011719 -110.355469 C 11.511719 -110.46875 11.117188 -110.550781 10.828125 -110.59375 C 10.742188 -110.609375 10.6875 -110.617188 10.65625 -110.617188 C 10.753906 -110.609375 10.878906 -110.613281 11.027344 -110.621094 L 10.691406 -115.671875 L 11.222656 -110.636719 C 12.570312 -110.78125 13.65625 -111.371094 14.476562 -112.40625 C 14.71875 -112.714844 14.90625 -113.027344 15.027344 -113.335938 C 15.042969 -113.378906 15.054688 -113.410156 15.066406 -113.4375 C 15.0625 -113.429688 15.058594 -113.414062 15.050781 -113.386719 C 15.023438 -113.277344 14.992188 -113.132812 14.957031 -112.953125 C 14.773438 -111.964844 14.597656 -110.402344 14.433594 -108.277344 C 14.082031 -103.75 13.808594 -96.945312 13.609375 -87.859375 C 13.203125 -69.542969 13.109375 -42.105469 13.324219 -5.539062 L 8.261719 -5.507812 L 8.40625 -10.570312 L 37.082031 -9.757812 L 36.9375 -4.699219 L 31.878906 -4.503906 L 30.078125 -51.0625 L 39.242188 -41.792969 C 48.460938 -32.46875 63.507812 -18.445312 84.382812 0.28125 L 81.003906 4.050781 L 77.421875 0.46875 C 81.089844 -3.195312 88.109375 -9.394531 98.480469 -18.128906 L 101.742188 -14.257812 L 98.464844 -10.398438 L 89.878906 -17.6875 C 84.132812 -22.566406 78.386719 -27.523438 72.640625 -32.566406 C 69.738281 -35.113281 67.539062 -37.085938 66.042969 -38.484375 C 65.246094 -39.230469 64.625 -39.835938 64.183594 -40.296875 C 63.1875 -41.339844 62.566406 -42.347656 62.320312 -43.324219 Z M 32 -55.992188 C 33.691406 -57.457031 35.785156 -59.160156 38.285156 -61.105469 L 45.097656 -66.378906 C 47.246094 -68.027344 49.335938 -69.597656 51.367188 -71.078125 C 53.261719 -72.460938 54.722656 -73.59375 55.757812 -74.480469 C 56.140625 -74.808594 56.394531 -75.042969 56.515625 -75.183594 C 56.445312 -75.101562 56.363281 -74.984375 56.273438 -74.828125 C 55.882812 -74.160156 55.691406 -73.410156 55.691406 -72.578125 C 55.691406 -71.429688 56.039062 -70.453125 56.738281 -69.644531 C 56.867188 -69.492188 56.96875 -69.390625 57.039062 -69.34375 C 56.753906 -69.546875 56.230469 -69.84375 55.46875 -70.230469 C 53.605469 -71.175781 50.746094 -72.414062 46.890625 -73.953125 C 43.078125 -75.472656 40.132812 -76.507812 38.058594 -77.066406 C 37.21875 -77.289062 36.597656 -77.417969 36.203125 -77.453125 L 36.164062 -77.453125 C 36.230469 -77.453125 36.308594 -77.460938 36.402344 -77.472656 C 36.96875 -77.550781 37.523438 -77.777344 38.058594 -78.152344 L 37.914062 -78.050781 L 37.761719 -77.957031 C 38.84375 -78.609375 39.558594 -79.507812 39.90625 -80.660156 C 39.953125 -80.808594 39.980469 -80.925781 39.992188 -81.011719 C 39.96875 -80.824219 39.941406 -80.484375 39.917969 -79.996094 C 39.863281 -78.789062 39.839844 -76.972656 39.855469 -74.550781 C 39.878906 -69.574219 40.054688 -62.167969 40.378906 -52.332031 L 35.316406 -52.167969 Z M 38.632812 -48.339844 L 30.605469 -41.382812 L 30.257812 -52 C 29.933594 -61.929688 29.753906 -69.429688 29.726562 -74.496094 C 29.714844 -77.09375 29.738281 -79.085938 29.804688 -80.472656 C 29.84375 -81.277344 29.898438 -81.933594 29.96875 -82.433594 C 30.242188 -84.371094 31.105469 -85.773438 32.550781 -86.640625 L 35.15625 -82.300781 L 32.253906 -86.449219 C 33.519531 -87.335938 35.109375 -87.699219 37.027344 -87.542969 C 38.03125 -87.460938 39.25 -87.230469 40.679688 -86.847656 C 43.136719 -86.1875 46.457031 -85.023438 50.640625 -83.359375 C 54.777344 -81.707031 57.910156 -80.34375 60.042969 -79.261719 C 61.28125 -78.636719 62.253906 -78.066406 62.96875 -77.546875 C 64.867188 -76.175781 65.816406 -74.519531 65.816406 -72.578125 C 65.816406 -71.148438 65.257812 -69.792969 64.136719 -68.515625 C 63.695312 -68.011719 63.097656 -67.433594 62.347656 -66.792969 C 61.113281 -65.734375 59.441406 -64.4375 57.339844 -62.898438 C 55.375 -61.46875 53.359375 -59.957031 51.296875 -58.367188 L 44.5 -53.109375 C 42.140625 -51.277344 40.1875 -49.6875 38.632812 -48.339844 Z M 38.632812 -48.339844 "/></g></g></g><g fill="#0564d2" fill-opacity="1"><g transform="translate(470.094015, 468.632676)"><g><path d="M 44.753906 -111.683594 L 46.109375 5.0625 L 3.546875 5.0625 L 3.015625 -115.933594 L 44.695312 -116.789062 Z M 34.628906 -111.5625 L 39.691406 -111.625 L 39.796875 -106.5625 L 8.203125 -105.914062 L 8.101562 -110.976562 L 13.164062 -110.996094 L 13.648438 -0.0234375 L 8.585938 0 L 8.585938 -5.0625 L 40.988281 -5.0625 L 40.988281 0 L 35.925781 0.0585938 Z M 34.628906 -111.5625 "/></g></g></g><g fill="#0564d2" fill-opacity="1"><g transform="translate(510.647412, 468.632676)"><g><path d="M 49.90625 -21.453125 C 50.214844 -22.53125 50.15625 -23.59375 49.726562 -24.632812 C 49.421875 -25.371094 48.96875 -25.992188 48.363281 -26.488281 C 47.945312 -26.832031 47.53125 -27.066406 47.117188 -27.191406 C 47.234375 -27.15625 47.601562 -27.109375 48.214844 -27.054688 C 49.964844 -26.894531 52.730469 -26.828125 56.507812 -26.851562 C 64.3125 -26.90625 76.164062 -27.363281 92.070312 -28.222656 L 97.441406 -28.511719 L 97.210938 6.796875 L 92.230469 6.84375 C 62.878906 7.117188 40.6875 6.964844 25.648438 6.394531 C 18.019531 6.105469 12.183594 5.707031 8.132812 5.195312 C 5.933594 4.917969 4.179688 4.59375 2.878906 4.226562 C 0.328125 3.503906 -1.355469 2.261719 -2.167969 0.5 L -2.253906 0.308594 L -2.328125 0.109375 C -2.816406 -1.230469 -2.785156 -2.828125 -2.238281 -4.683594 C -1.941406 -5.6875 -1.457031 -6.933594 -0.789062 -8.414062 C 0.417969 -11.097656 2.3125 -14.757812 4.890625 -19.394531 C 9.964844 -28.503906 15.230469 -37.3125 20.6875 -45.828125 L 28.617188 -58.285156 L 32.886719 -55.570312 L 28.671875 -52.765625 C 18.472656 -68.117188 10.816406 -80.0625 5.699219 -88.609375 C 3.097656 -92.957031 1.132812 -96.460938 -0.195312 -99.113281 C -1.820312 -102.363281 -2.632812 -104.804688 -2.632812 -106.4375 C -2.632812 -107.847656 -2.148438 -109.089844 -1.175781 -110.160156 C -0.699219 -110.6875 -0.113281 -111.144531 0.578125 -111.523438 C 1.320312 -111.929688 2.277344 -112.289062 3.441406 -112.601562 C 5.210938 -113.082031 7.761719 -113.535156 11.089844 -113.96875 C 17.425781 -114.796875 25.027344 -115.457031 33.902344 -115.949219 C 42.671875 -116.4375 51.46875 -116.871094 60.292969 -117.25 C 69.136719 -117.628906 76.660156 -117.871094 82.859375 -117.980469 L 96.964844 -118.230469 L 98.996094 -81.898438 L 93.605469 -81.933594 C 77.574219 -82.042969 65.484375 -81.976562 57.339844 -81.734375 C 53.347656 -81.617188 50.34375 -81.457031 48.328125 -81.261719 C 47.460938 -81.175781 46.839844 -81.089844 46.460938 -81.007812 C 46.429688 -81 46.414062 -80.996094 46.410156 -80.996094 C 46.480469 -81.015625 46.5625 -81.046875 46.65625 -81.085938 C 47.582031 -81.476562 48.308594 -82.152344 48.835938 -83.117188 L 48.484375 -82.476562 L 47.96875 -81.960938 C 49.011719 -83.003906 49.5 -84.253906 49.429688 -85.71875 C 49.40625 -86.167969 49.324219 -86.597656 49.183594 -87.007812 C 49.117188 -87.207031 49.050781 -87.359375 48.992188 -87.464844 C 49.09375 -87.285156 49.308594 -86.964844 49.636719 -86.5 C 50.4375 -85.371094 51.714844 -83.691406 53.46875 -81.464844 L 64.578125 -67.277344 C 66.527344 -64.769531 68.027344 -62.765625 69.074219 -61.261719 C 70.429688 -59.320312 71.238281 -57.832031 71.496094 -56.796875 L 66.585938 -55.570312 L 71.324219 -57.347656 C 71.824219 -56.019531 71.804688 -54.542969 71.273438 -52.925781 C 71.023438 -52.164062 70.628906 -51.273438 70.09375 -50.253906 C 69.199219 -48.554688 67.808594 -46.304688 65.925781 -43.507812 C 62.316406 -38.148438 58.597656 -32.898438 54.769531 -27.757812 C 52.898438 -25.246094 51.5 -23.34375 50.574219 -22.046875 C 50.140625 -21.4375 49.820312 -20.976562 49.617188 -20.671875 C 49.558594 -20.582031 49.523438 -20.53125 49.519531 -20.519531 C 49.90625 -21.195312 50.101562 -21.96875 50.101562 -22.84375 L 50.101562 -22.132812 Z M 40.171875 -24.234375 L 45.039062 -22.84375 L 39.976562 -22.84375 C 39.976562 -23.910156 40.371094 -25.046875 41.167969 -26.25 C 41.4375 -26.660156 41.828125 -27.21875 42.335938 -27.933594 C 43.300781 -29.28125 44.738281 -31.242188 46.648438 -33.804688 C 50.378906 -38.816406 54.007812 -43.9375 57.527344 -49.164062 C 59.207031 -51.65625 60.40625 -53.59375 61.132812 -54.96875 C 61.40625 -55.488281 61.582031 -55.863281 61.652344 -56.085938 C 61.628906 -56.003906 61.605469 -55.882812 61.585938 -55.714844 C 61.511719 -55.085938 61.601562 -54.445312 61.84375 -53.789062 L 61.742188 -54.0625 L 61.671875 -54.339844 C 61.730469 -54.109375 61.796875 -53.921875 61.867188 -53.777344 C 61.84375 -53.820312 61.800781 -53.894531 61.738281 -54.003906 C 61.523438 -54.363281 61.203125 -54.851562 60.773438 -55.464844 C 59.824219 -56.824219 58.433594 -58.679688 56.605469 -61.035156 L 45.515625 -75.195312 C 43.652344 -77.558594 42.273438 -79.378906 41.371094 -80.652344 C 40.847656 -81.390625 40.453125 -81.996094 40.183594 -82.46875 C 38.730469 -85.03125 38.9375 -87.25 40.808594 -89.121094 L 44.390625 -85.539062 L 39.945312 -87.964844 C 40.761719 -89.460938 42.207031 -90.4375 44.28125 -90.898438 C 45.050781 -91.066406 46.070312 -91.214844 47.339844 -91.339844 C 49.585938 -91.558594 52.820312 -91.730469 57.039062 -91.855469 C 65.308594 -92.101562 77.519531 -92.167969 93.675781 -92.0625 L 93.640625 -86.996094 L 88.585938 -86.714844 L 87.128906 -112.796875 L 92.183594 -113.082031 L 92.269531 -108.019531 L 83.035156 -107.855469 C 76.921875 -107.75 69.488281 -107.507812 60.726562 -107.132812 C 51.945312 -106.753906 43.191406 -106.324219 34.464844 -105.839844 C 25.839844 -105.359375 18.488281 -104.722656 12.398438 -103.929688 C 9.519531 -103.554688 7.410156 -103.1875 6.078125 -102.828125 C 5.824219 -102.757812 5.621094 -102.695312 5.464844 -102.640625 L 5.445312 -102.640625 C 5.75 -102.808594 6.042969 -103.050781 6.328125 -103.363281 C 7.105469 -104.21875 7.492188 -105.246094 7.492188 -106.4375 C 7.492188 -106.648438 7.480469 -106.796875 7.460938 -106.886719 C 7.492188 -106.757812 7.554688 -106.570312 7.644531 -106.328125 C 7.902344 -105.648438 8.304688 -104.753906 8.863281 -103.640625 C 10.074219 -101.214844 11.914062 -97.941406 14.386719 -93.8125 C 19.425781 -85.402344 26.996094 -73.585938 37.105469 -58.371094 L 38.925781 -55.628906 L 29.210938 -40.363281 C 23.867188 -32.023438 18.710938 -23.394531 13.738281 -14.464844 C 11.296875 -10.082031 9.53125 -6.683594 8.445312 -4.261719 C 7.964844 -3.195312 7.640625 -2.375 7.472656 -1.808594 C 7.445312 -1.722656 7.429688 -1.65625 7.417969 -1.601562 C 7.417969 -1.609375 7.421875 -1.628906 7.425781 -1.667969 C 7.484375 -2.191406 7.40625 -2.75 7.1875 -3.351562 L 2.429688 -1.621094 L 7.027344 -3.742188 C 6.632812 -4.597656 6.085938 -5.210938 5.390625 -5.582031 C 5.355469 -5.597656 5.328125 -5.613281 5.300781 -5.625 C 5.304688 -5.625 5.3125 -5.621094 5.324219 -5.617188 C 5.402344 -5.585938 5.503906 -5.554688 5.636719 -5.515625 C 6.449219 -5.289062 7.703125 -5.066406 9.402344 -4.851562 C 13.15625 -4.375 18.699219 -4 26.03125 -3.722656 C 40.910156 -3.160156 62.945312 -3.011719 92.136719 -3.28125 L 92.183594 1.78125 L 87.121094 1.75 L 87.28125 -23.199219 L 92.34375 -23.167969 L 92.617188 -18.113281 C 76.554688 -17.242188 64.539062 -16.78125 56.574219 -16.726562 C 52.46875 -16.699219 49.371094 -16.78125 47.289062 -16.972656 C 45.984375 -17.089844 44.941406 -17.269531 44.152344 -17.511719 C 43.289062 -17.777344 42.546875 -18.160156 41.933594 -18.667969 C 41.226562 -19.246094 40.703125 -19.949219 40.363281 -20.78125 C 39.898438 -21.90625 39.835938 -23.058594 40.171875 -24.234375 Z M 40.171875 -24.234375 "/></g></g></g><g fill="#0564d2" fill-opacity="1"><g transform="translate(599.638839, 468.632676)"><g><path d="M 56.285156 -36.460938 C 56.0625 -36.394531 55.875 -36.324219 55.722656 -36.246094 C 55.734375 -36.253906 55.773438 -36.277344 55.84375 -36.320312 C 56.109375 -36.488281 56.472656 -36.742188 56.9375 -37.082031 C 57.992188 -37.863281 59.429688 -39.007812 61.25 -40.511719 C 64.984375 -43.605469 68.53125 -46.648438 71.890625 -49.632812 C 73.566406 -51.125 74.820312 -52.253906 75.652344 -53.015625 C 76.035156 -53.367188 76.3125 -53.628906 76.484375 -53.800781 L 76.511719 -53.824219 C 75.699219 -52.921875 75.292969 -51.828125 75.292969 -50.546875 L 75.292969 -63.949219 L 104.199219 -31.152344 L 100.726562 -27.792969 C 88.84375 -16.289062 79.632812 -7.652344 73.097656 -1.875 C 69.757812 1.074219 67.082031 3.304688 65.070312 4.816406 C 63.957031 5.652344 63.003906 6.300781 62.210938 6.761719 C 60.808594 7.574219 59.511719 7.980469 58.324219 7.980469 C 56.953125 7.980469 55.410156 7.445312 53.699219 6.378906 C 52.628906 5.714844 51.324219 4.761719 49.78125 3.519531 C 46.910156 1.207031 43.066406 -2.21875 38.242188 -6.765625 C 28.691406 -15.773438 19.4375 -25.273438 10.484375 -35.261719 C 5.945312 -40.328125 2.515625 -44.449219 0.203125 -47.625 C -1.046875 -49.335938 -2.003906 -50.820312 -2.667969 -52.078125 C -3.617188 -53.859375 -4.089844 -55.457031 -4.089844 -56.863281 C -4.089844 -58.257812 -3.636719 -59.824219 -2.730469 -61.5625 C -2.09375 -62.785156 -1.175781 -64.21875 0.015625 -65.859375 C 2.214844 -68.878906 5.46875 -72.765625 9.777344 -77.519531 C 18.257812 -86.875 27.011719 -95.65625 36.042969 -103.867188 C 40.613281 -108.019531 44.25 -111.117188 46.953125 -113.15625 C 48.441406 -114.277344 49.707031 -115.121094 50.746094 -115.6875 C 52.691406 -116.742188 54.460938 -117.085938 56.058594 -116.71875 L 54.921875 -111.785156 L 55.546875 -116.808594 C 56.441406 -116.699219 57.492188 -116.292969 58.695312 -115.597656 C 59.410156 -115.1875 60.324219 -114.605469 61.433594 -113.859375 C 63.519531 -112.453125 66.402344 -110.394531 70.078125 -107.675781 C 77.347656 -102.304688 84.402344 -96.960938 91.242188 -91.640625 L 105.914062 -80.230469 L 80.308594 -53.949219 L 76.730469 -56.78125 C 69.796875 -62.265625 64.441406 -66.425781 60.667969 -69.261719 C 58.816406 -70.652344 57.363281 -71.710938 56.304688 -72.445312 C 55.828125 -72.773438 55.449219 -73.023438 55.171875 -73.195312 C 55.085938 -73.246094 55.027344 -73.28125 54.992188 -73.296875 C 55.105469 -73.242188 55.25 -73.183594 55.425781 -73.121094 L 55.335938 -73.152344 L 55.25 -73.183594 C 56.320312 -72.78125 57.347656 -72.765625 58.324219 -73.128906 C 58.429688 -73.167969 58.519531 -73.207031 58.59375 -73.246094 C 58.585938 -73.242188 58.566406 -73.230469 58.53125 -73.207031 C 58.132812 -72.953125 57.53125 -72.476562 56.730469 -71.785156 C 54.863281 -70.171875 52.222656 -67.632812 48.808594 -64.167969 C 45.367188 -60.671875 42.8125 -57.976562 41.148438 -56.078125 C 40.398438 -55.222656 39.863281 -54.566406 39.542969 -54.117188 C 39.492188 -54.050781 39.457031 -53.996094 39.429688 -53.957031 C 39.441406 -53.96875 39.457031 -54 39.480469 -54.046875 C 39.859375 -54.796875 39.980469 -55.652344 39.84375 -56.609375 L 39.859375 -56.503906 L 39.871094 -56.394531 C 39.820312 -56.902344 39.707031 -57.324219 39.53125 -57.660156 C 39.5625 -57.605469 39.632812 -57.492188 39.75 -57.320312 C 40.128906 -56.765625 40.722656 -56.003906 41.527344 -55.027344 C 43.273438 -52.917969 45.898438 -49.980469 49.394531 -46.21875 C 52.875 -42.472656 55.574219 -39.707031 57.480469 -37.925781 C 58.328125 -37.140625 58.96875 -36.589844 59.402344 -36.273438 C 59.457031 -36.234375 59.5 -36.207031 59.523438 -36.191406 C 59.484375 -36.214844 59.421875 -36.246094 59.347656 -36.28125 C 58.46875 -36.691406 57.5 -36.765625 56.445312 -36.503906 L 57.675781 -31.589844 Z M 59.066406 -26.722656 L 58.984375 -26.699219 L 58.902344 -26.679688 C 57.164062 -26.246094 55.355469 -26.707031 53.476562 -28.0625 C 52.695312 -28.625 51.730469 -29.445312 50.578125 -30.519531 C 48.492188 -32.464844 45.625 -35.402344 41.976562 -39.324219 C 38.347656 -43.230469 35.597656 -46.3125 33.726562 -48.574219 C 32.722656 -49.789062 31.945312 -50.800781 31.390625 -51.609375 C 30.4375 -53 29.90625 -54.261719 29.792969 -55.390625 L 34.832031 -55.894531 L 29.820312 -55.175781 C 29.601562 -56.703125 30.09375 -58.308594 31.296875 -59.996094 C 31.8125 -60.722656 32.558594 -61.640625 33.535156 -62.753906 C 35.328125 -64.796875 38.015625 -67.636719 41.59375 -71.273438 C 45.199219 -74.933594 48.039062 -77.660156 50.113281 -79.449219 C 51.28125 -80.457031 52.265625 -81.21875 53.070312 -81.734375 C 55.09375 -83.03125 57.007812 -83.339844 58.804688 -82.667969 L 57.027344 -77.925781 L 58.628906 -82.730469 C 59.796875 -82.339844 62.503906 -80.546875 66.75 -77.355469 C 70.59375 -74.46875 76.011719 -70.257812 83.011719 -64.722656 L 79.871094 -60.753906 L 76.242188 -64.285156 L 94.710938 -83.242188 L 98.339844 -79.707031 L 95.230469 -75.710938 L 85.023438 -83.648438 C 78.253906 -88.917969 71.265625 -94.210938 64.0625 -99.53125 C 60.503906 -102.160156 57.742188 -104.136719 55.777344 -105.460938 C 54.863281 -106.074219 54.148438 -106.53125 53.636719 -106.828125 C 53.464844 -106.925781 53.347656 -106.992188 53.28125 -107.019531 C 53.546875 -106.898438 53.882812 -106.8125 54.292969 -106.761719 L 54.035156 -106.792969 L 53.78125 -106.851562 C 54.496094 -106.6875 55.144531 -106.695312 55.722656 -106.875 C 55.765625 -106.890625 55.792969 -106.898438 55.800781 -106.898438 C 55.742188 -106.875 55.671875 -106.839844 55.582031 -106.789062 C 54.980469 -106.464844 54.136719 -105.890625 53.046875 -105.070312 C 50.59375 -103.21875 47.195312 -100.320312 42.855469 -96.375 C 34.066406 -88.382812 25.539062 -79.832031 17.277344 -70.71875 C 13.214844 -66.234375 10.191406 -62.628906 8.203125 -59.898438 C 7.304688 -58.664062 6.652344 -57.65625 6.246094 -56.875 C 6.109375 -56.613281 6.015625 -56.414062 5.972656 -56.277344 C 6.015625 -56.40625 6.035156 -56.601562 6.035156 -56.863281 C 6.035156 -57.144531 6.011719 -57.351562 5.96875 -57.480469 C 6.019531 -57.328125 6.121094 -57.109375 6.273438 -56.824219 C 6.714844 -55.992188 7.417969 -54.914062 8.382812 -53.589844 C 10.5 -50.6875 13.710938 -46.832031 18.027344 -42.019531 C 26.789062 -32.242188 35.84375 -22.945312 45.191406 -14.132812 C 49.820312 -9.769531 53.464844 -6.515625 56.128906 -4.371094 C 57.355469 -3.382812 58.328125 -2.667969 59.050781 -2.21875 C 59.277344 -2.074219 59.4375 -1.984375 59.527344 -1.945312 C 59.214844 -2.078125 58.8125 -2.148438 58.324219 -2.148438 C 57.820312 -2.148438 57.378906 -2.074219 57.003906 -1.921875 L 56.96875 -1.910156 C 57.011719 -1.933594 57.070312 -1.960938 57.136719 -2 C 57.578125 -2.257812 58.195312 -2.683594 58.984375 -3.277344 C 60.785156 -4.628906 63.253906 -6.691406 66.390625 -9.464844 C 72.816406 -15.136719 81.910156 -23.671875 93.683594 -35.066406 L 97.203125 -31.429688 L 93.40625 -28.082031 L 76.558594 -47.199219 L 80.355469 -50.546875 L 85.417969 -50.546875 C 85.417969 -49.105469 84.808594 -47.785156 83.589844 -46.582031 C 83.335938 -46.335938 82.976562 -45.996094 82.507812 -45.566406 C 81.636719 -44.761719 80.339844 -43.597656 78.617188 -42.0625 C 75.171875 -39 71.535156 -35.882812 67.710938 -32.714844 C 65.746094 -31.089844 64.160156 -29.828125 62.949219 -28.9375 C 61.324219 -27.738281 60.03125 -27 59.066406 -26.722656 Z M 59.066406 -26.722656 "/></g></g></g><g fill="#0564d2" fill-opacity="1"><g transform="translate(692.032252, 468.632676)"><g><path d="M 100.78125 6.195312 L 68.652344 5.238281 L 68.652344 -54.757812 L 73.714844 -54.757812 L 76.160156 -50.324219 L 38.574219 -29.589844 L 36.128906 -34.023438 L 41.191406 -34.023438 L 41.191406 2.027344 L 3.71875 2.914062 L 3.007812 -114.09375 L 41.351562 -114.09375 L 41.351562 -61.078125 L 36.289062 -61.078125 L 33.722656 -65.441406 L 71.144531 -87.472656 L 73.714844 -83.109375 L 68.652344 -83.109375 L 68.652344 -115.699219 L 104.464844 -118.175781 L 106.0625 6.351562 Z M 101.082031 -3.925781 L 100.929688 1.132812 L 95.867188 1.199219 L 94.410156 -112.691406 L 99.472656 -112.757812 L 99.820312 -107.707031 L 74.0625 -105.925781 L 73.714844 -110.976562 L 78.777344 -110.976562 L 78.777344 -80.214844 L 31.226562 -52.222656 L 31.226562 -109.03125 L 36.289062 -109.03125 L 36.289062 -103.96875 L 8.101562 -103.96875 L 8.101562 -109.03125 L 13.164062 -109.0625 L 13.8125 -2.300781 L 8.75 -2.269531 L 8.628906 -7.328125 L 36.007812 -7.976562 L 36.128906 -2.917969 L 31.066406 -2.917969 L 31.066406 -37.011719 L 78.777344 -63.335938 L 78.777344 0.324219 L 73.714844 0.324219 L 73.863281 -4.738281 Z M 101.082031 -3.925781 "/></g></g></g><g fill="#0564d2" fill-opacity="1"><g transform="translate(792.363653, 468.632676)"><g><path d="M 49.90625 -21.453125 C 50.214844 -22.53125 50.15625 -23.59375 49.726562 -24.632812 C 49.421875 -25.371094 48.96875 -25.992188 48.363281 -26.488281 C 47.945312 -26.832031 47.53125 -27.066406 47.117188 -27.191406 C 47.234375 -27.15625 47.601562 -27.109375 48.214844 -27.054688 C 49.964844 -26.894531 52.730469 -26.828125 56.507812 -26.851562 C 64.3125 -26.90625 76.164062 -27.363281 92.070312 -28.222656 L 97.441406 -28.511719 L 97.210938 6.796875 L 92.230469 6.84375 C 62.878906 7.117188 40.6875 6.964844 25.648438 6.394531 C 18.019531 6.105469 12.183594 5.707031 8.132812 5.195312 C 5.933594 4.917969 4.179688 4.59375 2.878906 4.226562 C 0.328125 3.503906 -1.355469 2.261719 -2.167969 0.5 L -2.253906 0.308594 L -2.328125 0.109375 C -2.816406 -1.230469 -2.785156 -2.828125 -2.238281 -4.683594 C -1.941406 -5.6875 -1.457031 -6.933594 -0.789062 -8.414062 C 0.417969 -11.097656 2.3125 -14.757812 4.890625 -19.394531 C 9.964844 -28.503906 15.230469 -37.3125 20.6875 -45.828125 L 28.617188 -58.285156 L 32.886719 -55.570312 L 28.671875 -52.765625 C 18.472656 -68.117188 10.816406 -80.0625 5.699219 -88.609375 C 3.097656 -92.957031 1.132812 -96.460938 -0.195312 -99.113281 C -1.820312 -102.363281 -2.632812 -104.804688 -2.632812 -106.4375 C -2.632812 -107.847656 -2.148438 -109.089844 -1.175781 -110.160156 C -0.699219 -110.6875 -0.113281 -111.144531 0.578125 -111.523438 C 1.320312 -111.929688 2.277344 -112.289062 3.441406 -112.601562 C 5.210938 -113.082031 7.761719 -113.535156 11.089844 -113.96875 C 17.425781 -114.796875 25.027344 -115.457031 33.902344 -115.949219 C 42.671875 -116.4375 51.46875 -116.871094 60.292969 -117.25 C 69.136719 -117.628906 76.660156 -117.871094 82.859375 -117.980469 L 96.964844 -118.230469 L 98.996094 -81.898438 L 93.605469 -81.933594 C 77.574219 -82.042969 65.484375 -81.976562 57.339844 -81.734375 C 53.347656 -81.617188 50.34375 -81.457031 48.328125 -81.261719 C 47.460938 -81.175781 46.839844 -81.089844 46.460938 -81.007812 C 46.429688 -81 46.414062 -80.996094 46.410156 -80.996094 C 46.480469 -81.015625 46.5625 -81.046875 46.65625 -81.085938 C 47.582031 -81.476562 48.308594 -82.152344 48.835938 -83.117188 L 48.484375 -82.476562 L 47.96875 -81.960938 C 49.011719 -83.003906 49.5 -84.253906 49.429688 -85.71875 C 49.40625 -86.167969 49.324219 -86.597656 49.183594 -87.007812 C 49.117188 -87.207031 49.050781 -87.359375 48.992188 -87.464844 C 49.09375 -87.285156 49.308594 -86.964844 49.636719 -86.5 C 50.4375 -85.371094 51.714844 -83.691406 53.46875 -81.464844 L 64.578125 -67.277344 C 66.527344 -64.769531 68.027344 -62.765625 69.074219 -61.261719 C 70.429688 -59.320312 71.238281 -57.832031 71.496094 -56.796875 L 66.585938 -55.570312 L 71.324219 -57.347656 C 71.824219 -56.019531 71.804688 -54.542969 71.273438 -52.925781 C 71.023438 -52.164062 70.628906 -51.273438 70.09375 -50.253906 C 69.199219 -48.554688 67.808594 -46.304688 65.925781 -43.507812 C 62.316406 -38.148438 58.597656 -32.898438 54.769531 -27.757812 C 52.898438 -25.246094 51.5 -23.34375 50.574219 -22.046875 C 50.140625 -21.4375 49.820312 -20.976562 49.617188 -20.671875 C 49.558594 -20.582031 49.523438 -20.53125 49.519531 -20.519531 C 49.90625 -21.195312 50.101562 -21.96875 50.101562 -22.84375 L 50.101562 -22.132812 Z M 40.171875 -24.234375 L 45.039062 -22.84375 L 39.976562 -22.84375 C 39.976562 -23.910156 40.371094 -25.046875 41.167969 -26.25 C 41.4375 -26.660156 41.828125 -27.21875 42.335938 -27.933594 C 43.300781 -29.28125 44.738281 -31.242188 46.648438 -33.804688 C 50.378906 -38.816406 54.007812 -43.9375 57.527344 -49.164062 C 59.207031 -51.65625 60.40625 -53.59375 61.132812 -54.96875 C 61.40625 -55.488281 61.582031 -55.863281 61.652344 -56.085938 C 61.628906 -56.003906 61.605469 -55.882812 61.585938 -55.714844 C 61.511719 -55.085938 61.601562 -54.445312 61.84375 -53.789062 L 61.742188 -54.0625 L 61.671875 -54.339844 C 61.730469 -54.109375 61.796875 -53.921875 61.867188 -53.777344 C 61.84375 -53.820312 61.800781 -53.894531 61.738281 -54.003906 C 61.523438 -54.363281 61.203125 -54.851562 60.773438 -55.464844 C 59.824219 -56.824219 58.433594 -58.679688 56.605469 -61.035156 L 45.515625 -75.195312 C 43.652344 -77.558594 42.273438 -79.378906 41.371094 -80.652344 C 40.847656 -81.390625 40.453125 -81.996094 40.183594 -82.46875 C 38.730469 -85.03125 38.9375 -87.25 40.808594 -89.121094 L 44.390625 -85.539062 L 39.945312 -87.964844 C 40.761719 -89.460938 42.207031 -90.4375 44.28125 -90.898438 C 45.050781 -91.066406 46.070312 -91.214844 47.339844 -91.339844 C 49.585938 -91.558594 52.820312 -91.730469 57.039062 -91.855469 C 65.308594 -92.101562 77.519531 -92.167969 93.675781 -92.0625 L 93.640625 -86.996094 L 88.585938 -86.714844 L 87.128906 -112.796875 L 92.183594 -113.082031 L 92.269531 -108.019531 L 83.035156 -107.855469 C 76.921875 -107.75 69.488281 -107.507812 60.726562 -107.132812 C 51.945312 -106.753906 43.191406 -106.324219 34.464844 -105.839844 C 25.839844 -105.359375 18.488281 -104.722656 12.398438 -103.929688 C 9.519531 -103.554688 7.410156 -103.1875 6.078125 -102.828125 C 5.824219 -102.757812 5.621094 -102.695312 5.464844 -102.640625 L 5.445312 -102.640625 C 5.75 -102.808594 6.042969 -103.050781 6.328125 -103.363281 C 7.105469 -104.21875 7.492188 -105.246094 7.492188 -106.4375 C 7.492188 -106.648438 7.480469 -106.796875 7.460938 -106.886719 C 7.492188 -106.757812 7.554688 -106.570312 7.644531 -106.328125 C 7.902344 -105.648438 8.304688 -104.753906 8.863281 -103.640625 C 10.074219 -101.214844 11.914062 -97.941406 14.386719 -93.8125 C 19.425781 -85.402344 26.996094 -73.585938 37.105469 -58.371094 L 38.925781 -55.628906 L 29.210938 -40.363281 C 23.867188 -32.023438 18.710938 -23.394531 13.738281 -14.464844 C 11.296875 -10.082031 9.53125 -6.683594 8.445312 -4.261719 C 7.964844 -3.195312 7.640625 -2.375 7.472656 -1.808594 C 7.445312 -1.722656 7.429688 -1.65625 7.417969 -1.601562 C 7.417969 -1.609375 7.421875 -1.628906 7.425781 -1.667969 C 7.484375 -2.191406 7.40625 -2.75 7.1875 -3.351562 L 2.429688 -1.621094 L 7.027344 -3.742188 C 6.632812 -4.597656 6.085938 -5.210938 5.390625 -5.582031 C 5.355469 -5.597656 5.328125 -5.613281 5.300781 -5.625 C 5.304688 -5.625 5.3125 -5.621094 5.324219 -5.617188 C 5.402344 -5.585938 5.503906 -5.554688 5.636719 -5.515625 C 6.449219 -5.289062 7.703125 -5.066406 9.402344 -4.851562 C 13.15625 -4.375 18.699219 -4 26.03125 -3.722656 C 40.910156 -3.160156 62.945312 -3.011719 92.136719 -3.28125 L 92.183594 1.78125 L 87.121094 1.75 L 87.28125 -23.199219 L 92.34375 -23.167969 L 92.617188 -18.113281 C 76.554688 -17.242188 64.539062 -16.78125 56.574219 -16.726562 C 52.46875 -16.699219 49.371094 -16.78125 47.289062 -16.972656 C 45.984375 -17.089844 44.941406 -17.269531 44.152344 -17.511719 C 43.289062 -17.777344 42.546875 -18.160156 41.933594 -18.667969 C 41.226562 -19.246094 40.703125 -19.949219 40.363281 -20.78125 C 39.898438 -21.90625 39.835938 -23.058594 40.171875 -24.234375 Z M 40.171875 -24.234375 "/></g></g></g><g fill="#000000" fill-opacity="1"><g transform="translate(271.764831, 419.625701)"><g/></g></g><g fill="#000000" fill-opacity="1"><g transform="translate(20.819531, 460.125699)"><g><path d="M 11.003906 -124.65625 C 16.035156 -122.371094 25.992188 -116.066406 40.875 -105.738281 C 55.589844 -95.53125 69.355469 -85.433594 82.171875 -75.4375 C 88.648438 -70.390625 93.488281 -66.402344 96.691406 -63.480469 C 98.414062 -61.90625 99.714844 -60.585938 100.601562 -59.527344 C 102.40625 -57.355469 103.082031 -55.277344 102.625 -53.296875 L 97.691406 -54.433594 L 102.671875 -53.527344 C 102.480469 -52.484375 101.953125 -51.359375 101.089844 -50.152344 C 100.558594 -49.417969 99.835938 -48.539062 98.921875 -47.523438 C 97.257812 -45.675781 94.855469 -43.246094 91.710938 -40.242188 C 85.488281 -34.296875 76.453125 -26.683594 64.605469 -17.398438 C 52.734375 -8.101562 40.5625 0.378906 28.085938 8.039062 L 23.363281 10.9375 L 6.097656 -23.816406 L 10.367188 -26.152344 C 16.011719 -29.238281 22.414062 -33 29.574219 -37.433594 C 36.714844 -41.859375 43.078125 -46.0625 48.65625 -50.050781 C 51.335938 -51.960938 53.296875 -53.480469 54.546875 -54.609375 C 55.011719 -55.03125 55.320312 -55.335938 55.464844 -55.527344 C 55.394531 -55.4375 55.320312 -55.296875 55.234375 -55.113281 C 54.929688 -54.441406 54.820312 -53.703125 54.910156 -52.902344 L 59.941406 -53.460938 L 54.929688 -52.746094 C 55.035156 -52.015625 55.273438 -51.394531 55.648438 -50.878906 L 55.625 -50.886719 C 55.316406 -51.203125 54.816406 -51.652344 54.121094 -52.234375 C 52.542969 -53.554688 50.160156 -55.386719 46.980469 -57.726562 C 40.515625 -62.484375 34.617188 -66.617188 29.289062 -70.136719 L 32.078125 -74.363281 L 37.140625 -74.335938 L 36.957031 -36.414062 L 32.433594 -35.953125 C 28.15625 -35.511719 23.847656 -35.15625 19.519531 -34.882812 C 15.234375 -34.609375 12.054688 -34.421875 9.988281 -34.3125 L 1.417969 -33.882812 L 1.417969 -39.207031 C 1.417969 -50.050781 1.660156 -64.917969 2.148438 -83.808594 C 2.636719 -102.8125 3.214844 -115.09375 3.882812 -120.652344 L 4.707031 -127.519531 Z M 6.816406 -115.4375 L 8.910156 -120.046875 L 13.9375 -119.445312 C 13.308594 -114.199219 12.753906 -102.234375 12.269531 -83.546875 C 11.785156 -64.742188 11.542969 -49.960938 11.542969 -39.207031 L 6.480469 -39.207031 L 6.226562 -44.261719 L 9.453125 -44.421875 C 11.488281 -44.53125 14.628906 -44.71875 18.878906 -44.988281 C 23.078125 -45.253906 27.253906 -45.597656 31.398438 -46.023438 L 31.914062 -40.988281 L 26.851562 -41.011719 L 27.058594 -83.738281 L 34.867188 -78.585938 C 40.339844 -74.976562 46.375 -70.742188 52.980469 -65.882812 C 56.332031 -63.417969 58.878906 -61.457031 60.621094 -59.996094 C 61.585938 -59.1875 62.34375 -58.5 62.894531 -57.933594 C 64.085938 -56.703125 64.773438 -55.453125 64.953125 -54.179688 L 64.976562 -54.023438 C 65.152344 -52.429688 64.660156 -50.875 63.5 -49.363281 C 62.976562 -48.683594 62.253906 -47.925781 61.332031 -47.09375 C 59.796875 -45.707031 57.535156 -43.945312 54.542969 -41.808594 C 48.78125 -37.695312 42.234375 -33.367188 34.90625 -28.828125 C 27.589844 -24.296875 21.03125 -20.441406 15.230469 -17.265625 L 12.796875 -21.710938 L 17.332031 -23.960938 L 29.96875 1.472656 L 25.433594 3.726562 L 22.785156 -0.589844 C 34.933594 -8.046875 46.792969 -16.308594 58.359375 -25.371094 C 69.949219 -34.449219 78.734375 -41.847656 84.714844 -47.5625 C 87.675781 -50.390625 89.902344 -52.636719 91.394531 -54.296875 C 92.0625 -55.039062 92.550781 -55.625 92.863281 -56.0625 C 92.949219 -56.179688 92.996094 -56.25 93.011719 -56.28125 C 92.878906 -56.03125 92.777344 -55.71875 92.710938 -55.339844 L 92.730469 -55.457031 L 92.757812 -55.574219 C 92.515625 -54.519531 92.605469 -53.59375 93.03125 -52.789062 C 93.050781 -52.757812 93.0625 -52.734375 93.074219 -52.714844 C 93.070312 -52.71875 93.0625 -52.730469 93.050781 -52.75 C 92.996094 -52.828125 92.917969 -52.929688 92.816406 -53.050781 C 92.230469 -53.753906 91.242188 -54.738281 89.863281 -56 C 86.855469 -58.746094 82.214844 -62.566406 75.945312 -67.453125 C 63.277344 -77.332031 49.664062 -87.320312 35.105469 -97.417969 C 20.71875 -107.398438 11.289062 -113.40625 6.816406 -115.4375 Z M 6.816406 -115.4375 "/></g></g></g><g fill="#000000" fill-opacity="1"><g transform="translate(95.60812, 460.125699)"><g><path d="M 49.90625 -21.453125 C 50.214844 -22.53125 50.15625 -23.59375 49.726562 -24.632812 C 49.421875 -25.371094 48.96875 -25.992188 48.363281 -26.488281 C 47.945312 -26.832031 47.53125 -27.066406 47.117188 -27.191406 C 47.234375 -27.15625 47.601562 -27.109375 48.214844 -27.054688 C 49.964844 -26.894531 52.730469 -26.828125 56.507812 -26.851562 C 64.3125 -26.90625 76.164062 -27.363281 92.070312 -28.222656 L 97.441406 -28.511719 L 97.210938 6.796875 L 92.230469 6.84375 C 62.878906 7.117188 40.6875 6.964844 25.648438 6.394531 C 18.019531 6.105469 12.183594 5.707031 8.132812 5.195312 C 5.933594 4.917969 4.179688 4.59375 2.878906 4.226562 C 0.328125 3.503906 -1.355469 2.261719 -2.167969 0.5 L -2.253906 0.308594 L -2.328125 0.109375 C -2.816406 -1.230469 -2.785156 -2.828125 -2.238281 -4.683594 C -1.941406 -5.6875 -1.457031 -6.933594 -0.789062 -8.414062 C 0.417969 -11.097656 2.3125 -14.757812 4.890625 -19.394531 C 9.964844 -28.503906 15.230469 -37.3125 20.6875 -45.828125 L 28.617188 -58.285156 L 32.886719 -55.570312 L 28.671875 -52.765625 C 18.472656 -68.117188 10.816406 -80.0625 5.699219 -88.609375 C 3.097656 -92.957031 1.132812 -96.460938 -0.195312 -99.113281 C -1.820312 -102.363281 -2.632812 -104.804688 -2.632812 -106.4375 C -2.632812 -107.847656 -2.148438 -109.089844 -1.175781 -110.160156 C -0.699219 -110.6875 -0.113281 -111.144531 0.578125 -111.523438 C 1.320312 -111.929688 2.277344 -112.289062 3.441406 -112.601562 C 5.210938 -113.082031 7.761719 -113.535156 11.089844 -113.96875 C 17.425781 -114.796875 25.027344 -115.457031 33.902344 -115.949219 C 42.671875 -116.4375 51.46875 -116.871094 60.292969 -117.25 C 69.136719 -117.628906 76.660156 -117.871094 82.859375 -117.980469 L 96.964844 -118.230469 L 98.996094 -81.898438 L 93.605469 -81.933594 C 77.574219 -82.042969 65.484375 -81.976562 57.339844 -81.734375 C 53.347656 -81.617188 50.34375 -81.457031 48.328125 -81.261719 C 47.460938 -81.175781 46.839844 -81.089844 46.460938 -81.007812 C 46.429688 -81 46.414062 -80.996094 46.410156 -80.996094 C 46.480469 -81.015625 46.5625 -81.046875 46.65625 -81.085938 C 47.582031 -81.476562 48.308594 -82.152344 48.835938 -83.117188 L 48.484375 -82.476562 L 47.96875 -81.960938 C 49.011719 -83.003906 49.5 -84.253906 49.429688 -85.71875 C 49.40625 -86.167969 49.324219 -86.597656 49.183594 -87.007812 C 49.117188 -87.207031 49.050781 -87.359375 48.992188 -87.464844 C 49.09375 -87.285156 49.308594 -86.964844 49.636719 -86.5 C 50.4375 -85.371094 51.714844 -83.691406 53.46875 -81.464844 L 64.578125 -67.277344 C 66.527344 -64.769531 68.027344 -62.765625 69.074219 -61.261719 C 70.429688 -59.320312 71.238281 -57.832031 71.496094 -56.796875 L 66.585938 -55.570312 L 71.324219 -57.347656 C 71.824219 -56.019531 71.804688 -54.542969 71.273438 -52.925781 C 71.023438 -52.164062 70.628906 -51.273438 70.09375 -50.253906 C 69.199219 -48.554688 67.808594 -46.304688 65.925781 -43.507812 C 62.316406 -38.148438 58.597656 -32.898438 54.769531 -27.757812 C 52.898438 -25.246094 51.5 -23.34375 50.574219 -22.046875 C 50.140625 -21.4375 49.820312 -20.976562 49.617188 -20.671875 C 49.558594 -20.582031 49.523438 -20.53125 49.519531 -20.519531 C 49.90625 -21.195312 50.101562 -21.96875 50.101562 -22.84375 L 50.101562 -22.132812 Z M 40.171875 -24.234375 L 45.039062 -22.84375 L 39.976562 -22.84375 C 39.976562 -23.910156 40.371094 -25.046875 41.167969 -26.25 C 41.4375 -26.660156 41.828125 -27.21875 42.335938 -27.933594 C 43.300781 -29.28125 44.738281 -31.242188 46.648438 -33.804688 C 50.378906 -38.816406 54.007812 -43.9375 57.527344 -49.164062 C 59.207031 -51.65625 60.40625 -53.59375 61.132812 -54.96875 C 61.40625 -55.488281 61.582031 -55.863281 61.652344 -56.085938 C 61.628906 -56.003906 61.605469 -55.882812 61.585938 -55.714844 C 61.511719 -55.085938 61.601562 -54.445312 61.84375 -53.789062 L 61.742188 -54.0625 L 61.671875 -54.339844 C 61.730469 -54.109375 61.796875 -53.921875 61.867188 -53.777344 C 61.84375 -53.820312 61.800781 -53.894531 61.738281 -54.003906 C 61.523438 -54.363281 61.203125 -54.851562 60.773438 -55.464844 C 59.824219 -56.824219 58.433594 -58.679688 56.605469 -61.035156 L 45.515625 -75.195312 C 43.652344 -77.558594 42.273438 -79.378906 41.371094 -80.652344 C 40.847656 -81.390625 40.453125 -81.996094 40.183594 -82.46875 C 38.730469 -85.03125 38.9375 -87.25 40.808594 -89.121094 L 44.390625 -85.539062 L 39.945312 -87.964844 C 40.761719 -89.460938 42.207031 -90.4375 44.28125 -90.898438 C 45.050781 -91.066406 46.070312 -91.214844 47.339844 -91.339844 C 49.585938 -91.558594 52.820312 -91.730469 57.039062 -91.855469 C 65.308594 -92.101562 77.519531 -92.167969 93.675781 -92.0625 L 93.640625 -86.996094 L 88.585938 -86.714844 L 87.128906 -112.796875 L 92.183594 -113.082031 L 92.269531 -108.019531 L 83.035156 -107.855469 C 76.921875 -107.75 69.488281 -107.507812 60.726562 -107.132812 C 51.945312 -106.753906 43.191406 -106.324219 34.464844 -105.839844 C 25.839844 -105.359375 18.488281 -104.722656 12.398438 -103.929688 C 9.519531 -103.554688 7.410156 -103.1875 6.078125 -102.828125 C 5.824219 -102.757812 5.621094 -102.695312 5.464844 -102.640625 L 5.445312 -102.640625 C 5.75 -102.808594 6.042969 -103.050781 6.328125 -103.363281 C 7.105469 -104.21875 7.492188 -105.246094 7.492188 -106.4375 C 7.492188 -106.648438 7.480469 -106.796875 7.460938 -106.886719 C 7.492188 -106.757812 7.554688 -106.570312 7.644531 -106.328125 C 7.902344 -105.648438 8.304688 -104.753906 8.863281 -103.640625 C 10.074219 -101.214844 11.914062 -97.941406 14.386719 -93.8125 C 19.425781 -85.402344 26.996094 -73.585938 37.105469 -58.371094 L 38.925781 -55.628906 L 29.210938 -40.363281 C 23.867188 -32.023438 18.710938 -23.394531 13.738281 -14.464844 C 11.296875 -10.082031 9.53125 -6.683594 8.445312 -4.261719 C 7.964844 -3.195312 7.640625 -2.375 7.472656 -1.808594 C 7.445312 -1.722656 7.429688 -1.65625 7.417969 -1.601562 C 7.417969 -1.609375 7.421875 -1.628906 7.425781 -1.667969 C 7.484375 -2.191406 7.40625 -2.75 7.1875 -3.351562 L 2.429688 -1.621094 L 7.027344 -3.742188 C 6.632812 -4.597656 6.085938 -5.210938 5.390625 -5.582031 C 5.355469 -5.597656 5.328125 -5.613281 5.300781 -5.625 C 5.304688 -5.625 5.3125 -5.621094 5.324219 -5.617188 C 5.402344 -5.585938 5.503906 -5.554688 5.636719 -5.515625 C 6.449219 -5.289062 7.703125 -5.066406 9.402344 -4.851562 C 13.15625 -4.375 18.699219 -4 26.03125 -3.722656 C 40.910156 -3.160156 62.945312 -3.011719 92.136719 -3.28125 L 92.183594 1.78125 L 87.121094 1.75 L 87.28125 -23.199219 L 92.34375 -23.167969 L 92.617188 -18.113281 C 76.554688 -17.242188 64.539062 -16.78125 56.574219 -16.726562 C 52.46875 -16.699219 49.371094 -16.78125 47.289062 -16.972656 C 45.984375 -17.089844 44.941406 -17.269531 44.152344 -17.511719 C 43.289062 -17.777344 42.546875 -18.160156 41.933594 -18.667969 C 41.226562 -19.246094 40.703125 -19.949219 40.363281 -20.78125 C 39.898438 -21.90625 39.835938 -23.058594 40.171875 -24.234375 Z M 40.171875 -24.234375 "/></g></g></g><g fill="#000000" fill-opacity="1"><g transform="translate(180.279209, 460.125699)"><g><path d="M 72.144531 -45.78125 C 71.976562 -46.445312 71.710938 -47.003906 71.347656 -47.457031 C 71.359375 -47.445312 71.410156 -47.390625 71.496094 -47.296875 C 71.8125 -46.972656 72.296875 -46.5 72.960938 -45.878906 C 74.378906 -44.554688 76.5 -42.652344 79.320312 -40.175781 C 85.023438 -35.171875 90.726562 -30.25 96.429688 -25.40625 L 109.582031 -14.242188 L 105 -10.382812 C 94.851562 -1.835938 88.046875 4.167969 84.582031 7.628906 L 81.191406 11.019531 L 77.625 7.820312 C 56.59375 -11.042969 41.402344 -25.207031 32.042969 -34.675781 L 35.640625 -38.234375 L 40.699219 -38.429688 L 42.207031 0.515625 L 3.226562 -0.585938 L 3.199219 -5.476562 C 2.984375 -42.140625 3.078125 -69.671875 3.484375 -88.082031 C 3.6875 -97.355469 3.972656 -104.347656 4.339844 -109.058594 C 4.53125 -111.546875 4.753906 -113.464844 5.003906 -114.808594 C 5.171875 -115.714844 5.378906 -116.46875 5.617188 -117.074219 C 5.859375 -117.683594 6.164062 -118.21875 6.53125 -118.6875 C 7.476562 -119.878906 8.683594 -120.554688 10.164062 -120.707031 L 10.257812 -120.71875 L 10.355469 -120.726562 C 11.757812 -120.820312 14.800781 -120.1875 19.488281 -118.835938 C 23.664062 -117.632812 29.492188 -115.804688 36.972656 -113.355469 C 51.929688 -108.460938 66.699219 -103.078125 81.277344 -97.203125 C 88.695312 -94.214844 94.296875 -91.6875 98.085938 -89.621094 C 100.183594 -88.480469 101.808594 -87.429688 102.964844 -86.472656 C 105.09375 -84.710938 106.15625 -82.78125 106.15625 -80.679688 C 106.15625 -79.214844 105.453125 -77.5625 104.054688 -75.730469 C 103.246094 -74.675781 102.082031 -73.320312 100.554688 -71.671875 C 97.65625 -68.539062 93.339844 -64.199219 87.601562 -58.652344 C 81.980469 -53.21875 77.792969 -49.054688 75.035156 -46.148438 C 73.722656 -44.765625 72.761719 -43.699219 72.15625 -42.953125 C 71.945312 -42.695312 71.8125 -42.523438 71.757812 -42.4375 C 72.226562 -43.1875 72.390625 -44.101562 72.257812 -45.179688 L 67.234375 -44.550781 Z M 62.320312 -43.324219 L 62.246094 -43.621094 L 62.210938 -43.925781 C 62.046875 -45.21875 62.363281 -46.507812 63.164062 -47.789062 C 63.441406 -48.234375 63.816406 -48.75 64.296875 -49.339844 C 65.066406 -50.289062 66.199219 -51.550781 67.691406 -53.121094 C 70.550781 -56.128906 74.839844 -60.402344 80.5625 -65.933594 C 86.164062 -71.347656 90.351562 -75.554688 93.125 -78.550781 C 94.433594 -79.964844 95.394531 -81.074219 96.003906 -81.875 C 96.21875 -82.152344 96.359375 -82.351562 96.421875 -82.460938 C 96.160156 -82 96.03125 -81.40625 96.03125 -80.679688 C 96.03125 -79.851562 96.234375 -79.15625 96.636719 -78.589844 C 96.675781 -78.535156 96.703125 -78.5 96.71875 -78.484375 C 96.671875 -78.535156 96.597656 -78.597656 96.507812 -78.675781 C 95.851562 -79.214844 94.765625 -79.898438 93.242188 -80.730469 C 89.796875 -82.605469 84.546875 -84.96875 77.492188 -87.808594 C 63.125 -93.601562 48.566406 -98.90625 33.824219 -103.734375 C 26.457031 -106.144531 20.742188 -107.9375 16.679688 -109.109375 C 14.710938 -109.675781 13.15625 -110.09375 12.011719 -110.355469 C 11.511719 -110.46875 11.117188 -110.550781 10.828125 -110.59375 C 10.742188 -110.609375 10.6875 -110.617188 10.65625 -110.617188 C 10.753906 -110.609375 10.878906 -110.613281 11.027344 -110.621094 L 10.691406 -115.671875 L 11.222656 -110.636719 C 12.570312 -110.78125 13.65625 -111.371094 14.476562 -112.40625 C 14.71875 -112.714844 14.90625 -113.027344 15.027344 -113.335938 C 15.042969 -113.378906 15.054688 -113.410156 15.066406 -113.4375 C 15.0625 -113.429688 15.058594 -113.414062 15.050781 -113.386719 C 15.023438 -113.277344 14.992188 -113.132812 14.957031 -112.953125 C 14.773438 -111.964844 14.597656 -110.402344 14.433594 -108.277344 C 14.082031 -103.75 13.808594 -96.945312 13.609375 -87.859375 C 13.203125 -69.542969 13.109375 -42.105469 13.324219 -5.539062 L 8.261719 -5.507812 L 8.40625 -10.570312 L 37.082031 -9.757812 L 36.9375 -4.699219 L 31.878906 -4.503906 L 30.078125 -51.0625 L 39.242188 -41.792969 C 48.460938 -32.46875 63.507812 -18.445312 84.382812 0.28125 L 81.003906 4.050781 L 77.421875 0.46875 C 81.089844 -3.195312 88.109375 -9.394531 98.480469 -18.128906 L 101.742188 -14.257812 L 98.464844 -10.398438 L 89.878906 -17.6875 C 84.132812 -22.566406 78.386719 -27.523438 72.640625 -32.566406 C 69.738281 -35.113281 67.539062 -37.085938 66.042969 -38.484375 C 65.246094 -39.230469 64.625 -39.835938 64.183594 -40.296875 C 63.1875 -41.339844 62.566406 -42.347656 62.320312 -43.324219 Z M 32 -55.992188 C 33.691406 -57.457031 35.785156 -59.160156 38.285156 -61.105469 L 45.097656 -66.378906 C 47.246094 -68.027344 49.335938 -69.597656 51.367188 -71.078125 C 53.261719 -72.460938 54.722656 -73.59375 55.757812 -74.480469 C 56.140625 -74.808594 56.394531 -75.042969 56.515625 -75.183594 C 56.445312 -75.101562 56.363281 -74.984375 56.273438 -74.828125 C 55.882812 -74.160156 55.691406 -73.410156 55.691406 -72.578125 C 55.691406 -71.429688 56.039062 -70.453125 56.738281 -69.644531 C 56.867188 -69.492188 56.96875 -69.390625 57.039062 -69.34375 C 56.753906 -69.546875 56.230469 -69.84375 55.46875 -70.230469 C 53.605469 -71.175781 50.746094 -72.414062 46.890625 -73.953125 C 43.078125 -75.472656 40.132812 -76.507812 38.058594 -77.066406 C 37.21875 -77.289062 36.597656 -77.417969 36.203125 -77.453125 L 36.164062 -77.453125 C 36.230469 -77.453125 36.308594 -77.460938 36.402344 -77.472656 C 36.96875 -77.550781 37.523438 -77.777344 38.058594 -78.152344 L 37.914062 -78.050781 L 37.761719 -77.957031 C 38.84375 -78.609375 39.558594 -79.507812 39.90625 -80.660156 C 39.953125 -80.808594 39.980469 -80.925781 39.992188 -81.011719 C 39.96875 -80.824219 39.941406 -80.484375 39.917969 -79.996094 C 39.863281 -78.789062 39.839844 -76.972656 39.855469 -74.550781 C 39.878906 -69.574219 40.054688 -62.167969 40.378906 -52.332031 L 35.316406 -52.167969 Z M 38.632812 -48.339844 L 30.605469 -41.382812 L 30.257812 -52 C 29.933594 -61.929688 29.753906 -69.429688 29.726562 -74.496094 C 29.714844 -77.09375 29.738281 -79.085938 29.804688 -80.472656 C 29.84375 -81.277344 29.898438 -81.933594 29.96875 -82.433594 C 30.242188 -84.371094 31.105469 -85.773438 32.550781 -86.640625 L 35.15625 -82.300781 L 32.253906 -86.449219 C 33.519531 -87.335938 35.109375 -87.699219 37.027344 -87.542969 C 38.03125 -87.460938 39.25 -87.230469 40.679688 -86.847656 C 43.136719 -86.1875 46.457031 -85.023438 50.640625 -83.359375 C 54.777344 -81.707031 57.910156 -80.34375 60.042969 -79.261719 C 61.28125 -78.636719 62.253906 -78.066406 62.96875 -77.546875 C 64.867188 -76.175781 65.816406 -74.519531 65.816406 -72.578125 C 65.816406 -71.148438 65.257812 -69.792969 64.136719 -68.515625 C 63.695312 -68.011719 63.097656 -67.433594 62.347656 -66.792969 C 61.113281 -65.734375 59.441406 -64.4375 57.339844 -62.898438 C 55.375 -61.46875 53.359375 -59.957031 51.296875 -58.367188 L 44.5 -53.109375 C 42.140625 -51.277344 40.1875 -49.6875 38.632812 -48.339844 Z M 38.632812 -48.339844 "/></g></g></g><g clip-path="url(#e2428ccae9)"><path fill="#ffffff" d="M 506.953125 313.386719 L 495.042969 328.210938 C 494.460938 328.9375 493.367188 328.9375 492.785156 328.210938 L 480.875 313.386719 C 480.433594 312.839844 480.433594 312.050781 480.875 311.5 L 492.785156 296.675781 C 493.367188 295.949219 494.460938 295.949219 495.042969 296.675781 L 506.953125 311.5 C 507.394531 312.046875 507.394531 312.835938 506.953125 313.386719 Z M 506.953125 313.386719 " fill-opacity="1" fill-rule="nonzero"/></g></svg>